<svg width="500" height="500" viewBox="0 0 500 500" fill="none" xmlns="http://www.w3.org/2000/svg">
    <circle cx="250" cy="250" r="250" fill="#7B5BFC" />
    <circle cx="250" cy="250" r="250" fill="url(#paint0_linear_3411_885)" />
    <path
        d="M245.074 119.047C199.685 119.047 159.399 140.434 134.131 173.503C151.34 160.951 172.663 153.515 195.771 153.515C252.859 153.515 299.128 198.876 299.128 254.832C299.128 310.781 252.859 356.143 195.771 356.143C172.663 356.143 151.34 348.711 134.131 336.157C159.398 369.216 199.684 390.611 245.074 390.611C321.581 390.611 383.609 329.806 383.609 254.833C383.609 179.842 321.581 119.047 245.074 119.047Z"
        fill="white" />
    <path
        d="M175.001 255.067C175.001 223.767 200.892 198.393 232.815 198.393C237.566 198.393 242.185 198.965 246.601 200.027C233.053 187.784 214.96 180.293 195.073 180.293C153.081 180.293 119.043 213.659 119.043 254.817C119.043 295.97 153.081 329.339 195.073 329.339C214.604 329.339 232.403 322.12 245.87 310.259C241.67 311.209 237.308 311.724 232.815 311.724C200.892 311.725 175.001 286.368 175.001 255.067Z"
        fill="white" />
    <defs>
        <linearGradient id="paint0_linear_3411_885" x1="36.1272" y1="-19.2308" x2="561.955" y2="59.5492"
            gradientUnits="userSpaceOnUse">
            <stop offset="0.242717" stop-color="#7A5AFB" />
            <stop offset="1" stop-color="#1E60EC" />
        </linearGradient>
    </defs>
</svg>